<svg xmlns="http://www.w3.org/2000/svg" xmlns:xlink="http://www.w3.org/1999/xlink" width="500" zoomAndPan="magnify" viewBox="0 0 375 374.999991" height="500" preserveAspectRatio="xMidYMid meet" version="1.2"><defs><clipPath id="7f98d06327"><path d="M 116.855469 152.742188 L 251.726562 152.742188 L 251.726562 194.214844 L 116.855469 194.214844 Z M 116.855469 152.742188 "/></clipPath><clipPath id="85b00d1730"><path d="M 192 108.722656 L 221 108.722656 L 221 137 L 192 137 Z M 192 108.722656 "/></clipPath><clipPath id="8fbc46336c"><path d="M 237.417969 163.183594 L 257.855469 163.183594 L 257.855469 183.792969 L 237.417969 183.792969 Z M 237.417969 163.183594 "/></clipPath></defs><g id="f29f0d1432"><rect x="0" width="375" y="0" height="374.999991" style="fill:#ffffff;fill-opacity:1;stroke:none;"/><rect x="0" width="375" y="0" height="374.999991" style="fill:#ffffff;fill-opacity:1;stroke:none;"/><g clip-rule="nonzero" clip-path="url(#7f98d06327)"><path style=" stroke:none;fill-rule:nonzero;fill:#3873c2;fill-opacity:1;" d="M 244.578125 184.03125 C 240.636719 182.3125 236.09375 180.667969 231.035156 179.46875 C 225.984375 178.265625 220.417969 177.535156 214.519531 177.488281 C 213.78125 177.484375 213.039062 177.484375 212.289062 177.5 C 211.917969 177.503906 211.542969 177.515625 211.164062 177.523438 C 210.789062 177.539062 210.410156 177.546875 210.03125 177.566406 C 208.515625 177.636719 206.980469 177.742188 205.429688 177.882812 C 204.65625 177.957031 203.875 178.035156 203.089844 178.128906 C 202.308594 178.21875 201.519531 178.316406 200.726562 178.421875 C 199.140625 178.632812 197.542969 178.890625 195.925781 179.160156 C 194.308594 179.429688 192.679688 179.738281 191.03125 180.058594 C 189.382812 180.378906 187.71875 180.722656 186.035156 181.074219 C 184.34375 181.433594 182.640625 181.792969 180.929688 182.152344 C 179.207031 182.519531 177.464844 182.875 175.699219 183.226562 C 173.9375 183.578125 172.144531 183.90625 170.328125 184.210938 C 169.417969 184.359375 168.503906 184.503906 167.582031 184.636719 C 166.660156 184.769531 165.726562 184.886719 164.789062 184.996094 C 162.917969 185.207031 161.011719 185.378906 159.078125 185.449219 C 157.148438 185.523438 155.1875 185.519531 153.210938 185.40625 C 152.714844 185.378906 152.222656 185.339844 151.726562 185.296875 L 150.921875 185.21875 L 150.25 185.136719 L 150.085938 185.117188 L 149.886719 185.089844 L 149.480469 185.035156 L 149.074219 184.976562 C 148.941406 184.957031 148.820312 184.933594 148.691406 184.914062 C 148.4375 184.867188 148.183594 184.828125 147.933594 184.78125 L 147.175781 184.632812 C 146.167969 184.421875 145.167969 184.179688 144.183594 183.890625 C 143.195312 183.597656 142.222656 183.265625 141.261719 182.902344 C 140.304688 182.539062 139.363281 182.128906 138.4375 181.6875 C 137.511719 181.246094 136.609375 180.765625 135.726562 180.25 C 134.847656 179.734375 133.984375 179.1875 133.148438 178.605469 C 132.316406 178.023438 131.503906 177.414062 130.722656 176.769531 C 129.9375 176.128906 129.1875 175.449219 128.460938 174.75 C 127.734375 174.050781 127.035156 173.328125 126.371094 172.574219 C 125.707031 171.824219 125.074219 171.050781 124.472656 170.253906 C 123.875 169.457031 123.308594 168.640625 122.769531 167.808594 C 120.640625 164.464844 119.058594 160.839844 118.074219 157.128906 C 117.691406 155.699219 117.398438 154.253906 117.195312 152.8125 C 116.875 155.117188 116.773438 157.496094 116.917969 159.910156 C 117.015625 161.667969 117.253906 163.441406 117.625 165.210938 C 117.996094 166.980469 118.5 168.742188 119.148438 170.46875 C 120.441406 173.925781 122.300781 177.246094 124.65625 180.242188 C 125.246094 180.988281 125.867188 181.714844 126.515625 182.421875 C 127.164062 183.125 127.847656 183.804688 128.550781 184.464844 C 129.257812 185.117188 129.996094 185.746094 130.757812 186.34375 C 131.519531 186.945312 132.300781 187.523438 133.113281 188.0625 C 133.921875 188.601562 134.757812 189.109375 135.609375 189.589844 C 136.464844 190.0625 137.34375 190.503906 138.234375 190.914062 C 139.125 191.324219 140.039062 191.699219 140.964844 192.03125 C 141.890625 192.363281 142.832031 192.667969 143.785156 192.921875 C 144.738281 193.179688 145.703125 193.40625 146.671875 193.589844 C 147.644531 193.773438 148.625 193.910156 149.609375 194.015625 L 150.347656 194.085938 C 150.59375 194.105469 150.839844 194.121094 151.085938 194.136719 C 151.210938 194.144531 151.328125 194.15625 151.460938 194.160156 L 151.851562 194.179688 L 152.246094 194.195312 L 152.441406 194.203125 L 152.601562 194.203125 L 153.25 194.214844 L 154.027344 194.214844 C 154.507812 194.207031 154.984375 194.199219 155.460938 194.179688 C 157.363281 194.097656 159.238281 193.914062 161.082031 193.660156 C 162.925781 193.402344 164.734375 193.058594 166.507812 192.675781 C 167.394531 192.484375 168.273438 192.28125 169.144531 192.066406 C 170.015625 191.851562 170.878906 191.625 171.734375 191.394531 C 173.445312 190.929688 175.128906 190.445312 176.785156 189.9375 C 178.441406 189.433594 180.078125 188.925781 181.691406 188.414062 C 183.292969 187.902344 184.890625 187.394531 186.476562 186.890625 C 188.054688 186.390625 189.613281 185.902344 191.164062 185.4375 C 192.710938 184.976562 194.242188 184.523438 195.765625 184.109375 C 197.289062 183.695312 198.792969 183.300781 200.292969 182.945312 C 201.039062 182.765625 201.785156 182.601562 202.527344 182.4375 C 203.269531 182.273438 204.007812 182.125 204.742188 181.980469 C 206.214844 181.695312 207.675781 181.445312 209.117188 181.234375 C 209.480469 181.179688 209.839844 181.136719 210.199219 181.085938 C 210.558594 181.042969 210.917969 180.992188 211.273438 180.953125 C 211.988281 180.871094 212.699219 180.796875 213.40625 180.730469 C 219.0625 180.210938 224.457031 180.378906 229.410156 181.046875 C 234.363281 181.710938 238.867188 182.851562 242.804688 184.121094 C 246.210938 185.222656 249.195312 186.414062 251.722656 187.515625 C 249.617188 186.382812 247.234375 185.191406 244.578125 184.03125 "/></g>
<!-- File truncated for display. Paste the full SVG contents from your PACIFIC-3.svg file here to overwrite FINALLOGO.svg completely. -->
</svg>
