<svg xmlns="http://www.w3.org/2000/svg" xmlns:xlink="http://www.w3.org/1999/xlink" width="500" zoomAndPan="magnify" viewBox="0 0 375 374.999991" height="500" preserveAspectRatio="xMidYMid meet" version="1.2"><defs><clipPath id="eb1dd73d93"><path d="M 122.597656 158.519531 L 247 158.519531 L 247 196.675781 L 122.597656 196.675781 Z M 122.597656 158.519531 "/></clipPath><clipPath id="260607f633"><path d="M 123.097656 158.710938 C 122.894531 160.179688 122.785156 161.679688 122.785156 163.210938 L 122.785156 163.25 C 122.785156 163.890625 122.804688 164.542969 122.847656 165.191406 C 122.9375 166.792969 123.15625 168.410156 123.496094 170.03125 C 123.835938 171.652344 124.296875 173.25 124.894531 174.832031 C 126.085938 177.980469 127.796875 181.011719 129.964844 183.75 C 130.507812 184.429688 131.085938 185.089844 131.675781 185.742188 C 132.265625 186.390625 132.894531 187 133.546875 187.601562 C 134.195312 188.203125 134.875 188.769531 135.574219 189.320312 C 136.277344 189.871094 136.996094 190.390625 137.746094 190.890625 C 138.496094 191.390625 139.257812 191.851562 140.046875 192.28125 C 140.835938 192.710938 141.636719 193.121094 142.457031 193.492188 C 143.277344 193.859375 144.117188 194.210938 144.964844 194.511719 C 145.816406 194.8125 146.6875 195.089844 147.566406 195.320312 C 148.445312 195.550781 149.324219 195.761719 150.226562 195.929688 C 151.125 196.101562 152.027344 196.222656 152.925781 196.320312 L 153.605469 196.382812 C 153.835938 196.402344 154.054688 196.410156 154.285156 196.429688 C 154.394531 196.441406 154.507812 196.453125 154.625 196.453125 L 154.984375 196.472656 L 155.347656 196.480469 L 155.527344 196.492188 L 155.675781 196.492188 L 156.277344 196.5 L 156.996094 196.5 C 157.4375 196.492188 157.875 196.492188 158.316406 196.472656 C 160.066406 196.402344 161.796875 196.230469 163.484375 196 C 165.175781 195.769531 166.847656 195.453125 168.476562 195.101562 C 169.296875 194.921875 170.105469 194.742188 170.90625 194.542969 C 171.707031 194.339844 172.496094 194.140625 173.285156 193.929688 C 174.855469 193.511719 176.40625 193.070312 177.9375 192.601562 C 179.464844 192.132812 180.964844 191.671875 182.445312 191.210938 C 183.925781 190.75 185.386719 190.28125 186.847656 189.820312 C 188.304688 189.359375 189.734375 188.921875 191.15625 188.5 C 192.574219 188.082031 193.984375 187.671875 195.394531 187.292969 C 196.804688 186.910156 198.1875 186.550781 199.566406 186.230469 C 200.253906 186.070312 200.945312 185.910156 201.625 185.769531 C 202.304688 185.632812 202.984375 185.480469 203.664062 185.351562 C 205.015625 185.089844 206.367188 184.859375 207.695312 184.671875 C 208.027344 184.621094 208.355469 184.582031 208.6875 184.53125 C 209.015625 184.480469 209.347656 184.453125 209.675781 184.410156 C 210.335938 184.332031 210.984375 184.269531 211.636719 184.203125 C 213.714844 184.011719 215.753906 183.921875 217.746094 183.921875 C 220.734375 183.921875 223.617188 184.121094 226.355469 184.492188 C 230.914062 185.089844 235.054688 186.132812 238.6875 187.292969 C 241.824219 188.300781 244.566406 189.382812 246.894531 190.390625 C 244.957031 189.359375 242.765625 188.269531 240.324219 187.210938 C 236.695312 185.640625 232.515625 184.140625 227.867188 183.050781 C 223.214844 181.960938 218.097656 181.292969 212.664062 181.242188 C 212.464844 181.242188 212.253906 181.242188 212.046875 181.242188 C 211.566406 181.242188 211.097656 181.242188 210.605469 181.25 C 210.265625 181.25 209.914062 181.269531 209.566406 181.269531 C 209.214844 181.269531 208.875 181.292969 208.527344 181.3125 C 207.136719 181.371094 205.714844 181.472656 204.296875 181.601562 C 203.585938 181.671875 202.867188 181.742188 202.144531 181.820312 C 201.425781 181.902344 200.695312 181.992188 199.964844 182.089844 C 198.503906 182.28125 197.035156 182.519531 195.546875 182.761719 C 194.054688 183 192.554688 183.292969 191.035156 183.582031 C 189.515625 183.871094 187.984375 184.179688 186.4375 184.511719 C 184.886719 184.839844 183.316406 185.160156 181.734375 185.492188 C 180.15625 185.820312 178.546875 186.152344 176.925781 186.472656 C 175.304688 186.792969 173.65625 187.089844 171.984375 187.371094 C 171.144531 187.511719 170.304688 187.640625 169.457031 187.761719 C 168.605469 187.882812 167.746094 187.992188 166.886719 188.089844 C 165.15625 188.28125 163.40625 188.441406 161.625 188.5 C 160.847656 188.53125 160.066406 188.550781 159.277344 188.550781 C 158.265625 188.550781 157.246094 188.519531 156.214844 188.460938 C 155.765625 188.429688 155.304688 188.402344 154.847656 188.359375 L 154.105469 188.292969 L 153.484375 188.222656 L 153.335938 188.203125 L 153.15625 188.171875 L 152.414062 188.070312 C 152.296875 188.050781 152.1875 188.03125 152.066406 188.011719 C 151.835938 187.972656 151.597656 187.929688 151.367188 187.890625 L 150.664062 187.75 C 149.734375 187.5625 148.816406 187.339844 147.914062 187.070312 C 147.015625 186.800781 146.117188 186.5 145.226562 186.171875 C 144.335938 185.839844 143.476562 185.460938 142.625 185.0625 C 141.777344 184.660156 140.945312 184.222656 140.136719 183.75 C 139.324219 183.28125 138.535156 182.78125 137.765625 182.25 C 136.996094 181.722656 136.257812 181.160156 135.535156 180.570312 C 134.816406 179.980469 134.125 179.371094 133.457031 178.730469 C 132.785156 178.089844 132.144531 177.429688 131.535156 176.75 C 130.925781 176.070312 130.347656 175.359375 129.785156 174.632812 C 129.226562 173.902344 128.714844 173.160156 128.214844 172.402344 C 126.257812 169.351562 124.796875 166.042969 123.894531 162.660156 C 123.546875 161.351562 123.277344 160.042969 123.085938 158.722656 Z M 123.097656 158.710938 "/></clipPath><clipPath id="631c83898f"><path d="M 123 148 L 182.410156 148 L 182.410156 181.894531 L 123 181.894531 Z M 123 148 "/></clipPath><clipPath id="557f2cac9d"><path d="M 180.195312 176.070312 C 178.875 175.980469 177.535156 175.921875 176.1875 175.859375 C 174.835938 175.800781 173.464844 175.761719 172.074219 175.722656 C 170.6875 175.679688 169.277344 175.652344 167.867188 175.609375 C 166.457031 175.570312 165.015625 175.53125 163.554688 175.472656 C 162.097656 175.410156 160.636719 175.339844 159.15625 175.242188 C 158.414062 175.191406 157.664062 175.132812 156.914062 175.0625 C 156.164062 174.992188 155.414062 174.910156 154.65625 174.820312 C 153.546875 174.691406 152.414062 174.53125 151.296875 174.339844 L 151.097656 174.3125 L 150.535156 174.230469 L 150.394531 174.210938 L 150.226562 174.179688 L 149.546875 174.0625 C 149.4375 174.042969 149.335938 174.019531 149.226562 174 C 149.015625 173.960938 148.804688 173.921875 148.597656 173.871094 L 147.964844 173.730469 C 147.125 173.53125 146.296875 173.300781 145.476562 173.03125 C 145.085938 172.902344 144.707031 172.769531 144.324219 172.632812 L 143.726562 172.429688 L 143.214844 172.242188 L 143.085938 172.191406 L 142.9375 172.132812 L 142.625 172.011719 L 142.316406 171.890625 C 142.214844 171.851562 142.125 171.8125 142.027344 171.769531 C 141.835938 171.691406 141.644531 171.609375 141.457031 171.53125 L 140.886719 171.269531 C 140.136719 170.921875 139.394531 170.542969 138.675781 170.132812 C 137.957031 169.722656 137.257812 169.28125 136.566406 168.820312 C 135.875 168.363281 135.214844 167.863281 134.566406 167.351562 C 133.914062 166.839844 133.296875 166.292969 132.707031 165.730469 C 132.117188 165.171875 131.535156 164.582031 130.984375 163.972656 C 130.4375 163.363281 129.914062 162.730469 129.414062 162.089844 C 128.914062 161.453125 128.457031 160.78125 128.015625 160.101562 C 127.574219 159.421875 127.15625 158.730469 126.777344 158.019531 C 126.394531 157.3125 126.035156 156.589844 125.714844 155.863281 C 125.394531 155.132812 125.097656 154.390625 124.824219 153.640625 C 124.1875 151.8125 123.714844 149.941406 123.4375 148.0625 C 123.277344 149.472656 123.207031 150.910156 123.246094 152.363281 C 123.285156 153.8125 123.4375 155.3125 123.695312 156.792969 C 123.957031 158.269531 124.335938 159.75 124.835938 161.203125 C 125.824219 164.113281 127.296875 166.921875 129.195312 169.472656 C 129.675781 170.109375 130.175781 170.730469 130.695312 171.332031 C 131.214844 171.929688 131.777344 172.519531 132.347656 173.082031 C 132.914062 173.640625 133.527344 174.191406 134.144531 174.703125 C 134.765625 175.210938 135.40625 175.722656 136.074219 176.191406 C 136.746094 176.660156 137.425781 177.109375 138.125 177.53125 C 138.824219 177.953125 139.554688 178.339844 140.296875 178.703125 C 141.035156 179.0625 141.785156 179.402344 142.554688 179.703125 C 143.324219 180 144.105469 180.28125 144.894531 180.519531 C 145.6875 180.761719 146.484375 180.972656 147.296875 181.152344 C 148.105469 181.332031 148.925781 181.472656 149.746094 181.582031 L 150.367188 181.660156 C 150.574219 181.691406 150.777344 181.703125 150.984375 181.722656 C 151.085938 181.730469 151.1875 181.742188 151.296875 181.75 L 151.625 181.78125 L 151.957031 181.800781 L 152.117188 181.8125 L 152.257812 181.820312 L 152.796875 181.851562 L 153.445312 181.871094 C 153.847656 181.882812 154.246094 181.882812 154.644531 181.882812 C 156.246094 181.859375 157.824219 181.761719 159.375 181.601562 C 160.925781 181.441406 162.457031 181.203125 163.957031 180.929688 C 164.707031 180.792969 165.445312 180.652344 166.1875 180.492188 C 166.925781 180.332031 167.65625 180.171875 168.375 180 C 169.824219 179.660156 171.246094 179.300781 172.65625 178.929688 C 174.066406 178.5625 175.445312 178.171875 176.804688 177.792969 C 178.164062 177.410156 179.515625 177.03125 180.855469 176.652344 C 181.375 176.511719 181.886719 176.359375 182.40625 176.222656 C 181.675781 176.160156 180.9375 176.109375 180.1875 176.050781 "/></clipPath><clipPath id="ff8d085a35"><path d="M 192.378906 118.304688 L 218 118.304688 L 218 144 L 192.378906 144 Z M 192.378906 118.304688 "/></clipPath><clipPath id="aea097c0d2"><path d="M 217.855469 131.179688 C 206.394531 131.871094 205.835938 132.441406 205.136719 143.871094 C 204.445312 132.429688 203.875 131.871094 192.414062 131.179688 C 203.886719 130.492188 204.445312 129.929688 205.136719 118.492188 C 205.835938 129.929688 206.394531 130.492188 217.855469 131.179688 "/></clipPath><clipPath id="b0b5dd6d27"><path d="M 233.625 168.144531 L 252.875 168.144531 L 252.875 187 L 233.625 187 Z M 233.625 168.144531 "/></clipPath><clipPath id="121fbd53f5"><path d="M 243.175781 168.261719 C 242.664062 176.679688 242.246094 177.089844 233.804688 177.601562 C 242.246094 178.109375 242.65625 178.519531 243.175781 186.941406 C 243.6875 178.519531 244.105469 178.109375 252.535156 177.601562 C 244.09375 177.089844 243.6875 176.671875 243.175781 168.261719 Z M 243.175781 168.261719 "/></clipPath><clipPath id="e9797434df"><path d="M 126.722656 131.023438 L 145.972656 131.023438 L 145.972656 149.925781 L 126.722656 149.925781 Z M 126.722656 131.023438 "/></clipPath><clipPath id="dadea20abb"><path d="M 145.636719 140.53125 C 137.195312 141.042969 136.785156 141.453125 136.265625 149.871094 C 135.757812 141.453125 135.335938 141.042969 126.894531 140.53125 C 135.335938 140.019531 135.746094 139.613281 136.265625 131.191406 C 136.777344 139.613281 137.195312 140.019531 145.636719 140.53125 "/></clipPath><clipPath id="eeee82abc1"><path d="M 140.472656 126 L 150.785156 126 L 150.785156 136.523438 L 140.472656 136.523438 Z M 140.472656 126 "/></clipPath><clipPath id="f6caa7be98"><path d="M 150.664062 131.179688 C 146.136719 131.453125 145.914062 131.679688 145.636719 136.203125 C 145.367188 131.679688 145.136719 131.460938 140.605469 131.179688 C 145.136719 130.910156 145.355469 130.679688 145.636719 126.160156 C 145.90625 130.679688 146.136719 130.902344 150.664062 131.179688 "/></clipPath></defs><g id="7d3a775ac1"><g clip-rule="nonzero" clip-path="url(#eb1dd73d93)"><g clip-rule="nonzero" clip-path="url(#260607f633)"><path style=" stroke:none;fill-rule:nonzero;fill:#3873c2;fill-opacity:1;" d="M 117.785156 113.492188 L 257.6875 113.492188 L 257.6875 201.488281 L 117.785156 201.488281 Z M 117.785156 113.492188 "/></g></g><g clip-rule="nonzero" clip-path="url(#631c83898f)"><g clip-rule="nonzero" clip-path="url(#557f2cac9d)"><path style=" stroke:none;fill-rule:nonzero;fill:#6ecfe1;fill-opacity:1;" d="M 117.785156 113.492188 L 257.6875 113.492188 L 257.6875 201.488281 L 117.785156 201.488281 Z M 117.785156 113.492188 "/></g></g><g clip-rule="nonzero" clip-path="url(#ff8d085a35)"><g clip-rule="nonzero" clip-path="url(#aea097c0d2)"><path style=" stroke:none;fill-rule:nonzero;fill:#6ecfe1;fill-opacity:1;" d="M 117.785156 113.492188 L 257.6875 113.492188 L 257.6875 201.488281 L 117.785156 201.488281 Z M 117.785156 113.492188 "/></g></g><g clip-rule="nonzero" clip-path="url(#b0b5dd6d27)"><g clip-rule="nonzero" clip-path="url(#121fbd53f5)"><path style=" stroke:none;fill-rule:nonzero;fill:#6ecfe1;fill-opacity:1;" d="M 117.785156 113.492188 L 257.6875 113.492188 L 257.6875 201.488281 L 117.785156 201.488281 Z M 117.785156 113.492188 "/></g></g><g clip-rule="nonzero" clip-path="url(#e9797434df)"><g clip-rule="nonzero" clip-path="url(#dadea20abb)"><path style=" stroke:none;fill-rule:nonzero;fill:#3873c2;fill-opacity:1;" d="M 117.785156 113.492188 L 257.6875 113.492188 L 257.6875 201.488281 L 117.785156 201.488281 Z M 117.785156 113.492188 "/></g></g><g clip-rule="nonzero" clip-path="url(#eeee82abc1)"><g clip-rule="nonzero" clip-path="url(#f6caa7be98)"><path style=" stroke:none;fill-rule:nonzero;fill:#3873c2;fill-opacity:1;" d="M 117.785156 113.492188 L 257.6875 113.492188 L 257.6875 201.488281 L 117.785156 201.488281 Z M 117.785156 113.492188 "/></g></g><g style="fill:#3873c2;fill-opacity:1;"><g transform="translate(65.801998, 238.523245)"><path style="stroke:none" d="M 1.703125 -38.390625 L 11.84375 -38.390625 C 14.90625 -38.390625 17.09375 -37.394531 18.40625 -35.40625 C 19.71875 -33.425781 20.375 -30.53125 20.375 -26.71875 C 20.375 -22.90625 19.789062 -20.03125 18.625 -18.09375 C 17.46875 -16.15625 15.382812 -15.1875 12.375 -15.1875 L 9.25 -15.1875 L 9.25 0 L 1.703125 0 Z M 9.703125 -22.125 C 10.617188 -22.125 11.289062 -22.289062 11.71875 -22.625 C 12.15625 -22.96875 12.441406 -23.457031 12.578125 -24.09375 C 12.710938 -24.738281 12.78125 -25.660156 12.78125 -26.859375 C 12.78125 -28.460938 12.597656 -29.625 12.234375 -30.34375 C 11.878906 -31.0625 11.164062 -31.421875 10.09375 -31.421875 L 9.25 -31.421875 L 9.25 -22.125 Z M 9.703125 -22.125 "/></g></g><g style="fill:#3873c2;fill-opacity:1;"><g transform="translate(86.892668, 238.523245)"><path style="stroke:none" d="M 0.671875 0 L 4.375 -38.390625 L 17.390625 -38.390625 L 21.046875 0 L 13.765625 0 L 13.234375 -6.21875 L 8.578125 -6.21875 L 8.140625 0 Z M 9.15625 -12.328125 L 12.640625 -12.328125 L 10.953125 -31.859375 L 10.59375 -31.859375 Z M 9.15625 -12.328125 "/></g></g><g style="fill:#3873c2;fill-opacity:1;"><g transform="translate(108.564228, 238.523245)"><path style="stroke:none" d="M 10.640625 0.359375 C 7.835938 0.359375 5.59375 -0.519531 3.90625 -2.28125 C 2.226562 -4.039062 1.390625 -6.453125 1.390625 -9.515625 L 1.390625 -27.21875 C 1.390625 -31.03125 2.144531 -33.90625 3.65625 -35.84375 C 5.175781 -37.78125 7.5625 -38.75 10.8125 -38.75 C 13.644531 -38.75 15.925781 -37.972656 17.65625 -36.421875 C 19.382812 -34.867188 20.25 -32.632812 20.25 -29.71875 L 20.25 -23.109375 L 12.609375 -23.109375 L 12.609375 -28.78125 C 12.609375 -29.882812 12.472656 -30.644531 12.203125 -31.0625 C 11.929688 -31.476562 11.46875 -31.6875 10.8125 -31.6875 C 10.125 -31.6875 9.65625 -31.445312 9.40625 -30.96875 C 9.15625 -30.488281 9.03125 -29.789062 9.03125 -28.875 L 9.03125 -9.609375 C 9.03125 -8.597656 9.175781 -7.859375 9.46875 -7.390625 C 9.769531 -6.929688 10.21875 -6.703125 10.8125 -6.703125 C 12.007812 -6.703125 12.609375 -7.671875 12.609375 -9.609375 L 12.609375 -16.53125 L 20.328125 -16.53125 L 20.328125 -9.296875 C 20.328125 -2.859375 17.097656 0.359375 10.640625 0.359375 Z M 10.640625 0.359375 "/></g></g><g style="fill:#3873c2;fill-opacity:1;"><g transform="translate(129.744265, 238.523245)"><path style="stroke:none" d="M 1.34375 0 L 1.34375 -38.390625 L 8.765625 -38.390625 L 8.765625 0 Z M 1.34375 0 "/></g></g><g style="fill:#3873c2;fill-opacity:1;"><g transform="translate(139.887449, 238.523245)"><path style="stroke:none" d="M 1.703125 0 L 1.703125 -38.390625 L 17.078125 -38.390625 L 17.078125 -30.921875 L 9.421875 -30.921875 L 9.421875 -24.796875 L 16.671875 -24.796875 L 16.671875 -17.421875 L 9.421875 -17.421875 L 9.421875 0 Z M 1.703125 0 "/></g></g><g style="fill:#3873c2;fill-opacity:1;"><g transform="translate(157.716221, 238.523245)"><path style="stroke:none" d="M 1.34375 0 L 1.34375 -38.390625 L 8.765625 -38.390625 L 8.765625 0 Z M 1.34375 0 "/></g></g><g style="fill:#3873c2;fill-opacity:1;"><g transform="translate(167.859405, 238.523245)"><path style="stroke:none" d="M 10.640625 0.359375 C 7.835938 0.359375 5.59375 -0.519531 3.90625 -2.28125 C 2.226562 -4.039062 1.390625 -6.453125 1.390625 -9.515625 L 1.390625 -27.21875 C 1.390625 -31.03125 2.144531 -33.90625 3.65625 -35.84375 C 5.175781 -37.78125 7.5625 -38.75 10.8125 -38.75 C 13.644531 -38.75 15.925781 -37.972656 17.65625 -36.421875 C 19.382812 -34.867188 20.25 -32.632812 20.25 -29.71875 L 20.25 -23.109375 L 12.609375 -23.109375 L 12.609375 -28.78125 C 12.609375 -29.882812 12.472656 -30.644531 12.203125 -31.0625 C 11.929688 -31.476562 11.46875 -31.6875 10.8125 -31.6875 C 10.125 -31.6875 9.65625 -31.445312 9.40625 -30.96875 C 9.15625 -30.488281 9.03125 -29.789062 9.03125 -28.875 L 9.03125 -9.609375 C 9.03125 -8.597656 9.175781 -7.859375 9.46875 -7.390625 C 9.769531 -6.929688 10.21875 -6.703125 10.8125 -6.703125 C 12.007812 -6.703125 12.609375 -7.671875 12.609375 -9.609375 L 12.609375 -16.53125 L 20.328125 -16.53125 L 20.328125 -9.296875 C 20.328125 -2.859375 17.097656 0.359375 10.640625 0.359375 Z M 10.640625 0.359375 "/></g></g><g style="fill:#3873c2;fill-opacity:1;"><g transform="translate(189.039442, 238.523245)"><path style="stroke:none" d=""/></g></g><g style="fill:#3873c2;fill-opacity:1;"><g transform="translate(199.495416, 238.523245)"><path style="stroke:none" d="M 1.703125 -38.390625 L 12.109375 -38.390625 C 14.910156 -38.390625 16.941406 -37.703125 18.203125 -36.328125 C 19.472656 -34.960938 20.109375 -32.726562 20.109375 -29.625 L 20.109375 -27.9375 C 20.109375 -24.269531 18.796875 -22.078125 16.171875 -21.359375 C 17.785156 -20.941406 18.921875 -19.972656 19.578125 -18.453125 C 20.234375 -16.929688 20.5625 -14.921875 20.5625 -12.421875 C 20.5625 -8.335938 19.945312 -5.242188 18.71875 -3.140625 C 17.5 -1.046875 15.296875 0 12.109375 0 L 1.703125 0 Z M 10.765625 -23.953125 C 11.421875 -23.953125 11.867188 -24.195312 12.109375 -24.6875 C 12.347656 -25.175781 12.46875 -25.867188 12.46875 -26.765625 L 12.46875 -30.609375 C 12.46875 -31.859375 11.914062 -32.484375 10.8125 -32.484375 L 9.203125 -32.484375 L 9.203125 -23.953125 Z M 9.96875 -6.75 C 11.957031 -6.75 12.953125 -7.703125 12.953125 -9.609375 L 12.953125 -14.390625 C 12.953125 -15.546875 12.78125 -16.421875 12.4375 -17.015625 C 12.101562 -17.617188 11.503906 -17.921875 10.640625 -17.921875 L 9.203125 -17.921875 L 9.203125 -6.796875 Z M 9.96875 -6.75 "/></g></g><g style="fill:#3873c2;fill-opacity:1;"><g transform="translate(220.898876, 238.523245)"><path style="stroke:none" d="M 10.59375 0.359375 C 7.4375 0.359375 5.085938 -0.53125 3.546875 -2.3125 C 2.015625 -4.101562 1.25 -6.757812 1.25 -10.28125 L 1.25 -38.390625 L 8.71875 -38.390625 L 8.71875 -10.59375 C 8.71875 -9.375 8.832031 -8.421875 9.0625 -7.734375 C 9.300781 -7.046875 9.8125 -6.703125 10.59375 -6.703125 C 11.363281 -6.703125 11.867188 -7.035156 12.109375 -7.703125 C 12.347656 -8.378906 12.46875 -9.34375 12.46875 -10.59375 L 12.46875 -38.390625 L 19.9375 -38.390625 L 19.9375 -10.28125 C 19.9375 -6.757812 19.164062 -4.101562 17.625 -2.3125 C 16.09375 -0.53125 13.75 0.359375 10.59375 0.359375 Z M 10.59375 0.359375 "/></g></g><g style="fill:#3873c2;fill-opacity:1;"><g transform="translate(242.078913, 238.523245)"><path style="stroke:none" d="M 1.34375 0 L 1.34375 -38.390625 L 8.765625 -38.390625 L 8.765625 0 Z M 1.34375 0 "/></g></g><g style="fill:#3873c2;fill-opacity:1;"><g transform="translate(252.222097, 238.523245)"><path style="stroke:none" d="M 1.703125 0 L 1.703125 -38.390625 L 9.390625 -38.390625 L 9.390625 -6.53125 L 17.296875 -6.53125 L 17.296875 0 Z M 1.703125 0 "/></g></g><g style="fill:#3873c2;fill-opacity:1;"><g transform="translate(269.961514, 238.523245)"><path style="stroke:none" d="M 1.703125 -38.390625 L 12.296875 -38.390625 C 15.035156 -38.390625 17.085938 -37.628906 18.453125 -36.109375 C 19.828125 -34.585938 20.53125 -32.335938 20.5625 -29.359375 L 20.640625 -11.390625 C 20.671875 -7.609375 20.015625 -4.765625 18.671875 -2.859375 C 17.335938 -0.953125 15.117188 0 12.015625 0 L 1.703125 0 Z M 10.765625 -6.796875 C 12.171875 -6.796875 12.875 -7.476562 12.875 -8.84375 L 12.875 -28.640625 C 12.875 -29.503906 12.804688 -30.148438 12.671875 -30.578125 C 12.535156 -31.015625 12.285156 -31.304688 11.921875 -31.453125 C 11.566406 -31.609375 11.019531 -31.6875 10.28125 -31.6875 L 9.421875 -31.6875 L 9.421875 -6.796875 Z M 10.765625 -6.796875 "/></g></g><g style="fill:#3873c2;fill-opacity:1;"><g transform="translate(291.990519, 238.523245)"><path style="stroke:none" d="M 1.34375 0 L 1.34375 -38.390625 L 8.765625 -38.390625 L 8.765625 0 Z M 1.34375 0 "/></g></g><g style="fill:#3873c2;fill-opacity:1;"><g transform="translate(302.133715, 238.523245)"><path style="stroke:none" d="M 1.703125 0 L 1.703125 -38.390625 L 9.609375 -38.390625 L 13.140625 -20.015625 L 13.140625 -38.390625 L 20.5625 -38.390625 L 20.5625 0 L 13.046875 0 L 9.203125 -19.21875 L 9.203125 0 Z M 1.703125 0 "/></g></g><g style="fill:#3873c2;fill-opacity:1;"><g transform="translate(324.386177, 238.523245)"><path style="stroke:none" d="M 9.609375 0.359375 C 6.835938 0.359375 4.773438 -0.613281 3.421875 -2.5625 C 2.066406 -4.519531 1.390625 -7.476562 1.390625 -11.4375 L 1.390625 -27.96875 C 1.390625 -31.519531 2.175781 -34.203125 3.75 -36.015625 C 5.332031 -37.835938 7.6875 -38.75 10.8125 -38.75 C 13.34375 -38.75 15.304688 -38.238281 16.703125 -37.21875 C 18.109375 -36.207031 19.078125 -34.734375 19.609375 -32.796875 C 20.148438 -30.859375 20.421875 -28.375 20.421875 -25.34375 L 12.921875 -25.34375 L 12.921875 -28.78125 C 12.921875 -29.707031 12.789062 -30.421875 12.53125 -30.921875 C 12.28125 -31.429688 11.828125 -31.6875 11.171875 -31.6875 C 9.710938 -31.6875 8.984375 -30.734375 8.984375 -28.828125 L 8.984375 -10.234375 C 8.984375 -9.066406 9.128906 -8.1875 9.421875 -7.59375 C 9.722656 -7 10.25 -6.703125 11 -6.703125 C 11.738281 -6.703125 12.253906 -7 12.546875 -7.59375 C 12.847656 -8.1875 13 -9.066406 13 -10.234375 L 13 -15.734375 L 10.953125 -15.734375 L 10.953125 -22.34375 L 20.328125 -22.34375 L 20.328125 0 L 17.25 0 L 15.953125 -3.21875 C 14.578125 -0.832031 12.460938 0.359375 9.609375 0.359375 Z M 9.609375 0.359375 "/></g></g><g style="fill:#3873c2;fill-opacity:1;"><g transform="translate(166.852772, 251.918436)"><path style="stroke:none" d="M 4.296875 0.171875 C 3.578125 0.171875 2.953125 0.0507812 2.421875 -0.1875 C 1.898438 -0.4375 1.492188 -0.78125 1.203125 -1.21875 C 0.921875 -1.664062 0.773438 -2.179688 0.765625 -2.765625 L 1.90625 -2.765625 C 1.914062 -2.191406 2.140625 -1.738281 2.578125 -1.40625 C 3.023438 -1.070312 3.597656 -0.90625 4.296875 -0.90625 C 4.929688 -0.90625 5.4375 -1.03125 5.8125 -1.28125 C 6.1875 -1.53125 6.375 -1.878906 6.375 -2.328125 C 6.375 -2.742188 6.191406 -3.078125 5.828125 -3.328125 C 5.472656 -3.585938 4.890625 -3.8125 4.078125 -4 C 2.972656 -4.257812 2.160156 -4.597656 1.640625 -5.015625 C 1.128906 -5.429688 0.875 -5.984375 0.875 -6.671875 C 0.875 -7.441406 1.160156 -8.046875 1.734375 -8.484375 C 2.316406 -8.929688 3.097656 -9.15625 4.078125 -9.15625 C 5.085938 -9.15625 5.882812 -8.898438 6.46875 -8.390625 C 7.0625 -7.890625 7.363281 -7.203125 7.375 -6.328125 L 6.25 -6.328125 C 6.238281 -6.867188 6.039062 -7.296875 5.65625 -7.609375 C 5.269531 -7.921875 4.742188 -8.078125 4.078125 -8.078125 C 3.441406 -8.078125 2.941406 -7.953125 2.578125 -7.703125 C 2.210938 -7.453125 2.03125 -7.109375 2.03125 -6.671875 C 2.03125 -6.304688 2.195312 -6 2.53125 -5.75 C 2.875 -5.5 3.484375 -5.265625 4.359375 -5.046875 C 5.503906 -4.765625 6.320312 -4.410156 6.8125 -3.984375 C 7.300781 -3.566406 7.546875 -3.023438 7.546875 -2.359375 C 7.546875 -1.578125 7.25 -0.957031 6.65625 -0.5 C 6.070312 -0.0507812 5.285156 0.171875 4.296875 0.171875 Z M 4.296875 0.171875 "/></g></g><g style="fill:#3873c2;fill-opacity:1;"><g transform="translate(175.155106, 251.918436)"><path style="stroke:none" d="M 5.390625 0.171875 C 4.484375 0.171875 3.675781 -0.0234375 2.96875 -0.421875 C 2.269531 -0.828125 1.722656 -1.378906 1.328125 -2.078125 C 0.941406 -2.785156 0.75 -3.59375 0.75 -4.5 C 0.75 -5.414062 0.941406 -6.222656 1.328125 -6.921875 C 1.722656 -7.617188 2.269531 -8.164062 2.96875 -8.5625 C 3.675781 -8.957031 4.484375 -9.15625 5.390625 -9.15625 C 6.304688 -9.15625 7.113281 -8.957031 7.8125 -8.5625 C 8.507812 -8.164062 9.054688 -7.617188 9.453125 -6.921875 C 9.859375 -6.222656 10.0625 -5.414062 10.0625 -4.5 C 10.0625 -3.59375 9.859375 -2.785156 9.453125 -2.078125 C 9.054688 -1.378906 8.507812 -0.828125 7.8125 -0.421875 C 7.113281 -0.0234375 6.304688 0.171875 5.390625 0.171875 Z M 1.90625 -4.5 C 1.90625 -3.800781 2.050781 -3.1875 2.34375 -2.65625 C 2.632812 -2.125 3.039062 -1.707031 3.5625 -1.40625 C 4.09375 -1.113281 4.703125 -0.96875 5.390625 -0.96875 C 6.085938 -0.96875 6.695312 -1.113281 7.21875 -1.40625 C 7.738281 -1.707031 8.144531 -2.125 8.4375 -2.65625 C 8.738281 -3.1875 8.890625 -3.800781 8.890625 -4.5 C 8.890625 -5.195312 8.738281 -5.804688 8.4375 -6.328125 C 8.144531 -6.859375 7.738281 -7.273438 7.21875 -7.578125 C 6.695312 -7.878906 6.085938 -8.03125 5.390625 -8.03125 C 4.703125 -8.03125 4.09375 -7.878906 3.5625 -7.578125 C 3.039062 -7.273438 2.632812 -6.859375 2.34375 -6.328125 C 2.050781 -5.804688 1.90625 -5.195312 1.90625 -4.5 Z M 1.90625 -4.5 "/></g></g><g style="fill:#3873c2;fill-opacity:1;"><g transform="translate(185.93402, 251.918436)"><path style="stroke:none" d="M 1.3125 0 L 1.3125 -8.984375 L 2.4375 -8.984375 L 2.4375 -1.078125 L 6.8125 -1.078125 L 6.8125 0 Z M 1.3125 0 "/></g></g><g style="fill:#3873c2;fill-opacity:1;"><g transform="translate(193.1328, 251.918436)"><path style="stroke:none" d="M 4.671875 0.15625 C 3.585938 0.15625 2.738281 -0.179688 2.125 -0.859375 C 1.507812 -1.535156 1.203125 -2.46875 1.203125 -3.65625 L 1.203125 -8.984375 L 2.328125 -8.984375 L 2.328125 -3.734375 C 2.328125 -2.816406 2.523438 -2.125 2.921875 -1.65625 C 3.328125 -1.1875 3.910156 -0.953125 4.671875 -0.953125 C 6.242188 -0.953125 7.03125 -1.878906 7.03125 -3.734375 L 7.03125 -8.984375 L 8.15625 -8.984375 L 8.15625 -3.65625 C 8.15625 -2.46875 7.847656 -1.535156 7.234375 -0.859375 C 6.617188 -0.179688 5.765625 0.15625 4.671875 0.15625 Z M 4.671875 0.15625 "/></g></g><g style="fill:#3873c2;fill-opacity:1;"><g transform="translate(202.48736, 251.918436)"><path style="stroke:none" d="M 3.484375 0 L 3.484375 -7.90625 L 0.4375 -7.90625 L 0.4375 -8.984375 L 7.640625 -8.984375 L 7.640625 -7.90625 L 4.609375 -7.90625 L 4.609375 0 Z M 3.484375 0 "/></g></g><g style="fill:#3873c2;fill-opacity:1;"><g transform="translate(210.571546, 251.918436)"><path style="stroke:none" d="M 1.3125 0 L 1.3125 -8.984375 L 2.4375 -8.984375 L 2.4375 0 Z M 1.3125 0 "/></g></g><g style="fill:#3873c2;fill-opacity:1;"><g transform="translate(214.318502, 251.918436)"><path style="stroke:none" d="M 5.390625 0.171875 C 4.484375 0.171875 3.675781 -0.0234375 2.96875 -0.421875 C 2.269531 -0.828125 1.722656 -1.378906 1.328125 -2.078125 C 0.941406 -2.785156 0.75 -3.59375 0.75 -4.5 C 0.75 -5.414062 0.941406 -6.222656 1.328125 -6.921875 C 1.722656 -7.617188 2.269531 -8.164062 2.96875 -8.5625 C 3.675781 -8.957031 4.484375 -9.15625 5.390625 -9.15625 C 6.304688 -9.15625 7.113281 -8.957031 7.8125 -8.5625 C 8.507812 -8.164062 9.054688 -7.617188 9.453125 -6.921875 C 9.859375 -6.222656 10.0625 -5.414062 10.0625 -4.5 C 10.0625 -3.59375 9.859375 -2.785156 9.453125 -2.078125 C 9.054688 -1.378906 8.507812 -0.828125 7.8125 -0.421875 C 7.113281 -0.0234375 6.304688 0.171875 5.390625 0.171875 Z M 1.90625 -4.5 C 1.90625 -3.800781 2.050781 -3.1875 2.34375 -2.65625 C 2.632812 -2.125 3.039062 -1.707031 3.5625 -1.40625 C 4.09375 -1.113281 4.703125 -0.96875 5.390625 -0.96875 C 6.085938 -0.96875 6.695312 -1.113281 7.21875 -1.40625 C 7.738281 -1.707031 8.144531 -2.125 8.4375 -2.65625 C 8.738281 -3.1875 8.890625 -3.800781 8.890625 -4.5 C 8.890625 -5.195312 8.738281 -5.804688 8.4375 -6.328125 C 8.144531 -6.859375 7.738281 -7.273438 7.21875 -7.578125 C 6.695312 -7.878906 6.085938 -8.03125 5.390625 -8.03125 C 4.703125 -8.03125 4.09375 -7.878906 3.5625 -7.578125 C 3.039062 -7.273438 2.632812 -6.859375 2.34375 -6.328125 C 2.050781 -5.804688 1.90625 -5.195312 1.90625 -4.5 Z M 1.90625 -4.5 "/></g></g><g style="fill:#3873c2;fill-opacity:1;"><g transform="translate(225.097417, 251.918436)"><path style="stroke:none" d="M 1.3125 0 L 1.3125 -8.984375 L 2.375 -8.984375 L 7.34375 -1.953125 L 7.34375 -8.984375 L 8.453125 -8.984375 L 8.453125 0 L 7.390625 0 L 2.421875 -7.03125 L 2.421875 0 Z M 1.3125 0 "/></g></g><g style="fill:#3873c2;fill-opacity:1;"><g transform="translate(234.849773, 251.918436)"><path style="stroke:none" d="M 4.296875 0.171875 C 3.578125 0.171875 2.953125 0.0507812 2.421875 -0.1875 C 1.898438 -0.4375 1.492188 -0.78125 1.203125 -1.21875 C 0.921875 -1.664062 0.773438 -2.179688 0.765625 -2.765625 L 1.90625 -2.765625 C 1.914062 -2.191406 2.140625 -1.738281 2.578125 -1.40625 C 3.023438 -1.070312 3.597656 -0.90625 4.296875 -0.90625 C 4.929688 -0.90625 5.4375 -1.03125 5.8125 -1.28125 C 6.1875 -1.53125 6.375 -1.878906 6.375 -2.328125 C 6.375 -2.742188 6.191406 -3.078125 5.828125 -3.328125 C 5.472656 -3.585938 4.890625 -3.8125 4.078125 -4 C 2.972656 -4.257812 2.160156 -4.597656 1.640625 -5.015625 C 1.128906 -5.429688 0.875 -5.984375 0.875 -6.671875 C 0.875 -7.441406 1.160156 -8.046875 1.734375 -8.484375 C 2.316406 -8.929688 3.097656 -9.15625 4.078125 -9.15625 C 5.085938 -9.15625 5.882812 -8.898438 6.46875 -8.390625 C 7.0625 -7.890625 7.363281 -7.203125 7.375 -6.328125 L 6.25 -6.328125 C 6.238281 -6.867188 6.039062 -7.296875 5.65625 -7.609375 C 5.269531 -7.921875 4.742188 -8.078125 4.078125 -8.078125 C 3.441406 -8.078125 2.941406 -7.953125 2.578125 -7.703125 C 2.210938 -7.453125 2.03125 -7.109375 2.03125 -6.671875 C 2.03125 -6.304688 2.195312 -6 2.53125 -5.75 C 2.875 -5.5 3.484375 -5.265625 4.359375 -5.046875 C 5.503906 -4.765625 6.320312 -4.410156 6.8125 -3.984375 C 7.300781 -3.566406 7.546875 -3.023438 7.546875 -2.359375 C 7.546875 -1.578125 7.25 -0.957031 6.65625 -0.5 C 6.070312 -0.0507812 5.285156 0.171875 4.296875 0.171875 Z M 4.296875 0.171875 "/></g></g></g></svg>
