<svg xmlns="http://www.w3.org/2000/svg" xmlns:xlink="http://www.w3.org/1999/xlink" width="500" zoomAndPan="magnify" viewBox="0 0 375 374.999991" height="500" preserveAspectRatio="xMidYMid meet" version="1.2"><defs><clipPath id="7f98d06327"><path d="M 116.855469 152.742188 L 251.726562 152.742188 L 251.726562 194.214844 L 116.855469 194.214844 Z M 116.855469 152.742188 "/></clipPath><clipPath id="85b00d1730"><path d="M 192 108.722656 L 221 108.722656 L 221 137 L 192 137 Z M 192 108.722656 "/></clipPath><clipPath id="8fbc46336c"><path d="M 237.417969 163.183594 L 257.855469 163.183594 L 257.855469 183.792969 L 237.417969 183.792969 Z M 237.417969 163.183594 "/></clipPath></defs><g id="f29f0d1432"><rect x="0" width="375" y="0" height="374.999991" style="fill:#ffffff;fill-opacity:1;stroke:none;"/><rect x="0" width="375" y="0" height="374.999991" style="fill:#ffffff;fill-opacity:1;stroke:none;"/><g clip-rule="nonzero" clip-path="url(#7f98d06327)"><path style=" stroke:none;fill-rule:nonzero;fill:#3873c2;fill-opacity:1;" d="M 244.578125 184.03125 C 240.636719 182.3125 236.09375 180.667969 231.035156 179.46875 C 225.984375 178.265625 220.417969 177.535156 214.519531 177.488281 C 213.78125 177.484375 213.039062 177.484375 212.289062 177.5 C 211.917969 177.503906 211.542969 177.515625 211.164062 177.523438 C 210.789062 177.539062 210.410156 177.546875 210.03125 177.566406 C 208.515625 177.636719 206.980469 177.742188 205.429688 177.882812 C 204.65625 177.957031 203.875 178.035156 203.089844 178.128906 C 202.308594 178.21875 201.519531 178.316406 200.726562 178.421875 C 199.140625 178.632812 197.542969 178.890625 195.925781 179.160156 C 194.308594 179.429688 192.679688 179.738281 191.03125 180.058594 C 189.382812 180.378906 187.71875 180.722656 186.035156 181.074219 C 184.34375 181.433594 182.640625 181.792969 180.929688 182.152344 C 179.207031 182.519531 177.464844 182.875 175.699219 183.226562 C 173.9375 183.578125 172.144531 183.90625 170.328125 184.210938 C 169.417969 184.359375 168.503906 184.503906 167.582031 184.636719 C 166.660156 184.769531 165.726562 184.886719 164.789062 184.996094 C 162.917969 185.207031 161.011719 185.378906 159.078125 185.449219 C 157.148438 185.523438 155.1875 185.519531 153.210938 185.40625 C 152.714844 185.378906 152.222656 185.339844 151.726562 185.296875 L 150.921875 185.21875 L 150.25 185.136719 L 150.085938 185.117188 L 149.886719 185.089844 L 149.480469 185.035156 L 149.074219 184.976562 C 148.941406 184.957031 148.820312 184.933594 148.691406 184.914062 C 148.4375 184.867188 148.183594 184.828125 147.933594 184.78125 L 147.175781 184.632812 C 146.167969 184.421875 145.167969 184.179688 144.183594 183.890625 C 143.195312 183.597656 142.222656 183.265625 141.261719 182.902344 C 140.304688 182.539062 139.363281 182.128906 138.4375 181.6875 C 137.511719 181.246094 136.609375 180.765625 135.726562 180.25 C 134.847656 179.734375 133.984375 179.1875 133.148438 178.605469 C 132.316406 178.023438 131.503906 177.414062 130.722656 176.769531 C 129.9375 176.128906 129.1875 175.449219 128.460938 174.75 C 127.734375 174.050781 127.035156 173.328125 126.371094 172.574219 C 125.707031 171.824219 125.074219 171.050781 124.472656 170.253906 C 123.875 169.457031 123.308594 168.640625 122.769531 167.808594 C 120.640625 164.464844 119.058594 160.839844 118.074219 157.128906 C 117.691406 155.699219 117.398438 154.253906 117.195312 152.8125 C 116.875 155.117188 116.773438 157.496094 116.917969 159.910156 C 117.015625 161.667969 117.253906 163.441406 117.625 165.210938 C 117.996094 166.980469 118.5 168.742188 119.148438 170.46875 C 120.441406 173.925781 122.300781 177.246094 124.65625 180.242188 C 125.246094 180.988281 125.867188 181.714844 126.515625 182.421875 C 127.164062 183.125 127.847656 183.804688 128.550781 184.464844 C 129.257812 185.117188 129.996094 185.746094 130.757812 186.34375 C 131.519531 186.945312 132.300781 187.523438 133.113281 188.0625 C 133.921875 188.601562 134.757812 189.109375 135.609375 189.589844 C 136.464844 190.0625 137.34375 190.503906 138.234375 190.914062 C 139.125 191.324219 140.039062 191.699219 140.964844 192.03125 C 141.890625 192.363281 142.832031 192.667969 143.785156 192.921875 C 144.738281 193.179688 145.703125 193.40625 146.671875 193.589844 C 147.644531 193.773438 148.625 193.910156 149.609375 194.015625 L 150.347656 194.085938 C 150.59375 194.105469 150.839844 194.121094 151.085938 194.136719 C 151.210938 194.144531 151.328125 194.15625 151.460938 194.160156 L 151.851562 194.179688 L 152.246094 194.195312 L 152.441406 194.203125 L 152.601562 194.203125 L 153.25 194.214844 L 154.027344 194.214844 C 154.507812 194.207031 154.984375 194.199219 155.460938 194.179688 C 157.363281 194.097656 159.238281 193.914062 161.082031 193.660156 C 162.925781 193.402344 164.734375 193.058594 166.507812 192.675781 C 167.394531 192.484375 168.273438 192.28125 169.144531 192.066406 C 170.015625 191.851562 170.878906 191.625 171.734375 191.394531 C 173.445312 190.929688 175.128906 190.445312 176.785156 189.9375 C 178.441406 189.433594 180.078125 188.925781 181.691406 188.414062 C 183.292969 187.902344 184.890625 187.394531 186.476562 186.890625 C 188.054688 186.390625 189.613281 185.902344 191.164062 185.4375 C 192.710938 184.976562 194.242188 184.523438 195.765625 184.109375 C 197.289062 183.695312 198.792969 183.300781 200.292969 182.945312 C 201.039062 182.765625 201.785156 182.601562 202.527344 182.4375 C 203.269531 182.273438 204.007812 182.125 204.742188 181.980469 C 206.214844 181.695312 207.675781 181.445312 209.117188 181.234375 C 209.480469 181.179688 209.839844 181.136719 210.199219 181.085938 C 210.558594 181.042969 210.917969 180.992188 211.273438 180.953125 C 211.988281 180.871094 212.699219 180.796875 213.40625 180.730469 C 219.0625 180.210938 224.457031 180.378906 229.410156 181.046875 C 234.363281 181.710938 238.867188 182.851562 242.804688 184.121094 C 246.210938 185.222656 249.195312 186.414062 251.722656 187.515625 C 249.617188 186.382812 247.234375 185.191406 244.578125 184.03125 "/></g><path style=" stroke:none;fill-rule:nonzero;fill:#6ecfe1;fill-opacity:1;" d="M 179.242188 171.832031 C 177.804688 171.734375 176.351562 171.667969 174.878906 171.605469 C 173.410156 171.539062 171.917969 171.496094 170.410156 171.457031 C 168.894531 171.417969 167.371094 171.375 165.835938 171.335938 C 164.292969 171.296875 162.734375 171.25 161.15625 171.1875 C 159.578125 171.128906 157.984375 171.042969 156.371094 170.933594 C 155.566406 170.875 154.753906 170.8125 153.941406 170.738281 C 153.125 170.664062 152.308594 170.574219 151.488281 170.476562 C 150.277344 170.328125 149.058594 170.160156 147.832031 169.945312 L 147.613281 169.917969 L 147.003906 169.828125 L 146.851562 169.804688 L 146.671875 169.773438 L 146.300781 169.707031 L 145.933594 169.644531 C 145.8125 169.621094 145.703125 169.597656 145.585938 169.574219 C 145.359375 169.527344 145.128906 169.484375 144.898438 169.433594 L 144.214844 169.273438 C 143.300781 169.054688 142.398438 168.800781 141.507812 168.507812 C 141.085938 168.371094 140.667969 168.222656 140.25 168.066406 L 139.601562 167.84375 L 139.046875 167.640625 L 138.90625 167.589844 L 138.742188 167.523438 L 138.410156 167.394531 L 138.074219 167.261719 C 137.964844 167.21875 137.863281 167.171875 137.757812 167.128906 C 137.550781 167.039062 137.34375 166.953125 137.136719 166.863281 L 136.519531 166.582031 C 135.703125 166.195312 134.898438 165.785156 134.117188 165.335938 C 133.332031 164.886719 132.566406 164.40625 131.824219 163.902344 C 131.074219 163.394531 130.355469 162.851562 129.652344 162.289062 C 128.953125 161.726562 128.277344 161.128906 127.628906 160.507812 C 126.980469 159.890625 126.355469 159.246094 125.757812 158.582031 C 125.164062 157.914062 124.59375 157.226562 124.054688 156.519531 C 123.515625 155.8125 123.007812 155.078125 122.527344 154.335938 C 122.050781 153.589844 121.597656 152.832031 121.183594 152.054688 C 120.769531 151.277344 120.382812 150.488281 120.03125 149.683594 C 119.679688 148.882812 119.359375 148.070312 119.066406 147.25 C 118.371094 145.25 117.867188 143.199219 117.558594 141.140625 C 117.378906 142.683594 117.304688 144.257812 117.351562 145.855469 C 117.386719 147.460938 117.550781 149.085938 117.839844 150.707031 C 118.125 152.332031 118.535156 153.953125 119.078125 155.546875 C 120.15625 158.734375 121.753906 161.816406 123.8125 164.613281 C 124.332031 165.3125 124.875 165.992188 125.445312 166.65625 C 126.019531 167.316406 126.621094 167.957031 127.242188 168.574219 C 127.867188 169.195312 128.523438 169.785156 129.199219 170.355469 C 129.875 170.921875 130.574219 171.472656 131.296875 171.988281 C 132.019531 172.503906 132.765625 172.992188 133.53125 173.453125 C 134.296875 173.910156 135.082031 174.339844 135.882812 174.738281 C 136.683594 175.136719 137.503906 175.507812 138.339844 175.835938 C 139.175781 176.167969 140.023438 176.472656 140.882812 176.730469 C 141.746094 176.996094 142.617188 177.226562 143.496094 177.425781 C 144.378906 177.617188 145.265625 177.773438 146.160156 177.898438 L 146.832031 177.984375 C 147.054688 178.011719 147.28125 178.03125 147.503906 178.054688 C 147.617188 178.0625 147.726562 178.074219 147.84375 178.085938 L 148.199219 178.113281 L 148.558594 178.140625 L 148.734375 178.152344 L 148.882812 178.160156 L 149.472656 178.1875 L 150.183594 178.210938 C 150.617188 178.21875 151.054688 178.222656 151.488281 178.21875 C 153.226562 178.203125 154.941406 178.089844 156.628906 177.910156 C 158.316406 177.730469 159.972656 177.46875 161.601562 177.171875 C 162.414062 177.023438 163.222656 176.863281 164.023438 176.695312 C 164.824219 176.523438 165.617188 176.34375 166.402344 176.15625 C 167.976562 175.785156 169.523438 175.390625 171.046875 174.980469 C 172.574219 174.566406 174.078125 174.152344 175.5625 173.730469 C 177.039062 173.3125 178.507812 172.898438 179.96875 172.484375 C 180.53125 172.324219 181.089844 172.167969 181.648438 172.011719 C 180.851562 171.949219 180.050781 171.886719 179.242188 171.832031 "/><g clip-rule="nonzero" clip-path="url(#85b00d1730)"><path style=" stroke:none;fill-rule:nonzero;fill:#6ecfe1;fill-opacity:1;" d="M 220.171875 122.636719 C 207.71875 123.394531 207.105469 124.011719 206.351562 136.546875 C 205.59375 124.011719 204.984375 123.394531 192.527344 122.636719 C 204.984375 121.875 205.59375 121.257812 206.351562 108.726562 C 207.105469 121.257812 207.71875 121.875 220.171875 122.636719 "/></g><g clip-rule="nonzero" clip-path="url(#8fbc46336c)"><path style=" stroke:none;fill-rule:nonzero;fill:#6ecfe1;fill-opacity:1;" d="M 257.859375 173.515625 C 248.6875 174.074219 248.238281 174.527344 247.679688 183.757812 C 247.125 174.527344 246.675781 174.074219 237.503906 173.515625 C 246.675781 172.953125 247.125 172.5 247.679688 163.269531 C 248.238281 172.5 248.6875 172.953125 257.859375 173.515625 "/></g><path style=" stroke:none;fill-rule:nonzero;fill:#3873c2;fill-opacity:1;" d="M 141.6875 132.878906 C 132.515625 133.4375 132.066406 133.890625 131.507812 143.121094 C 130.953125 133.890625 130.503906 133.4375 121.332031 132.878906 C 130.503906 132.320312 130.953125 131.863281 131.507812 122.636719 C 132.066406 131.863281 132.515625 132.320312 141.6875 132.878906 "/><path style=" stroke:none;fill-rule:nonzero;fill:#3873c2;fill-opacity:1;" d="M 147.152344 122.636719 C 142.226562 122.9375 141.984375 123.179688 141.6875 128.136719 C 141.386719 123.179688 141.144531 122.9375 136.222656 122.636719 C 141.144531 122.335938 141.386719 122.089844 141.6875 117.136719 C 141.984375 122.089844 142.226562 122.335938 147.152344 122.636719 "/><g style="fill:#3873c2;fill-opacity:1;"><g transform="translate(61.66553, 246.104332)"><path style="stroke:none" d="M 1.6875 -38.125 L 11.765625 -38.125 C 14.804688 -38.125 16.976562 -37.140625 18.28125 -35.171875 C 19.582031 -33.203125 20.234375 -30.320312 20.234375 -26.53125 C 20.234375 -22.75 19.65625 -19.894531 18.5 -17.96875 C 17.351562 -16.050781 15.285156 -15.09375 12.296875 -15.09375 L 9.1875 -15.09375 L 9.1875 0 L 1.6875 0 Z M 9.625 -21.96875 C 10.539062 -21.96875 11.210938 -22.132812 11.640625 -22.46875 C 12.078125 -22.8125 12.359375 -23.300781 12.484375 -23.9375 C 12.617188 -24.570312 12.6875 -25.484375 12.6875 -26.671875 C 12.6875 -28.265625 12.507812 -29.414062 12.15625 -30.125 C 11.800781 -30.84375 11.09375 -31.203125 10.03125 -31.203125 L 9.1875 -31.203125 L 9.1875 -21.96875 Z M 9.625 -21.96875 "/></g></g><g style="fill:#3873c2;fill-opacity:1;"><g transform="translate(80.832061, 246.104332)"><path style="stroke:none" d="M 0.671875 0 L 4.34375 -38.125 L 17.265625 -38.125 L 20.90625 0 L 13.671875 0 L 13.140625 -6.171875 L 8.515625 -6.171875 L 8.078125 0 Z M 9.09375 -12.25 L 12.5625 -12.25 L 10.875 -31.640625 L 10.515625 -31.640625 Z M 9.09375 -12.25 "/></g></g><g style="fill:#3873c2;fill-opacity:1;"><g transform="translate(100.57537, 246.104332)"><path style="stroke:none" d="M 10.5625 0.359375 C 7.78125 0.359375 5.550781 -0.507812 3.875 -2.25 C 2.207031 -4 1.375 -6.398438 1.375 -9.453125 L 1.375 -27.03125 C 1.375 -30.8125 2.128906 -33.660156 3.640625 -35.578125 C 5.148438 -37.503906 7.515625 -38.46875 10.734375 -38.46875 C 13.546875 -38.46875 15.8125 -37.695312 17.53125 -36.15625 C 19.25 -34.625 20.109375 -32.410156 20.109375 -29.515625 L 20.109375 -22.9375 L 12.515625 -22.9375 L 12.515625 -28.578125 C 12.515625 -29.671875 12.378906 -30.425781 12.109375 -30.84375 C 11.847656 -31.257812 11.390625 -31.46875 10.734375 -31.46875 C 10.054688 -31.46875 9.59375 -31.226562 9.34375 -30.75 C 9.09375 -30.28125 8.96875 -29.585938 8.96875 -28.671875 L 8.96875 -9.546875 C 8.96875 -8.535156 9.113281 -7.800781 9.40625 -7.34375 C 9.695312 -6.882812 10.140625 -6.65625 10.734375 -6.65625 C 11.921875 -6.65625 12.515625 -7.617188 12.515625 -9.546875 L 12.515625 -16.421875 L 20.1875 -16.421875 L 20.1875 -9.234375 C 20.1875 -2.835938 16.976562 0.359375 10.5625 0.359375 Z M 10.5625 0.359375 "/></g></g><g style="fill:#3873c2;fill-opacity:1;"><g transform="translate(119.830636, 246.104332)"><path style="stroke:none" d="M 1.328125 0 L 1.328125 -38.125 L 8.703125 -38.125 L 8.703125 0 Z M 1.328125 0 "/></g></g><g style="fill:#3873c2;fill-opacity:1;"><g transform="translate(128.1272, 246.104332)"><path style="stroke:none" d="M 1.6875 0 L 1.6875 -38.125 L 16.953125 -38.125 L 16.953125 -30.703125 L 9.359375 -30.703125 L 9.359375 -24.625 L 16.546875 -24.625 L 16.546875 -17.3125 L 9.359375 -17.3125 L 9.359375 0 Z M 1.6875 0 "/></g></g><g style="fill:#3873c2;fill-opacity:1;"><g transform="translate(144.054932, 246.104332)"><path style="stroke:none" d="M 1.328125 0 L 1.328125 -38.125 L 8.703125 -38.125 L 8.703125 0 Z M 1.328125 0 "/></g></g><g style="fill:#3873c2;fill-opacity:1;"><g transform="translate(152.351497, 246.104332)"><path style="stroke:none" d="M 10.5625 0.359375 C 7.78125 0.359375 5.550781 -0.507812 3.875 -2.25 C 2.207031 -4 1.375 -6.398438 1.375 -9.453125 L 1.375 -27.03125 C 1.375 -30.8125 2.128906 -33.660156 3.640625 -35.578125 C 5.148438 -37.503906 7.515625 -38.46875 10.734375 -38.46875 C 13.546875 -38.46875 15.8125 -37.695312 17.53125 -36.15625 C 19.25 -34.625 20.109375 -32.410156 20.109375 -29.515625 L 20.109375 -22.9375 L 12.515625 -22.9375 L 12.515625 -28.578125 C 12.515625 -29.671875 12.378906 -30.425781 12.109375 -30.84375 C 11.847656 -31.257812 11.390625 -31.46875 10.734375 -31.46875 C 10.054688 -31.46875 9.59375 -31.226562 9.34375 -30.75 C 9.09375 -30.28125 8.96875 -29.585938 8.96875 -28.671875 L 8.96875 -9.546875 C 8.96875 -8.535156 9.113281 -7.800781 9.40625 -7.34375 C 9.695312 -6.882812 10.140625 -6.65625 10.734375 -6.65625 C 11.921875 -6.65625 12.515625 -7.617188 12.515625 -9.546875 L 12.515625 -16.421875 L 20.1875 -16.421875 L 20.1875 -9.234375 C 20.1875 -2.835938 16.976562 0.359375 10.5625 0.359375 Z M 10.5625 0.359375 "/></g></g><g style="fill:#3873c2;fill-opacity:1;"><g transform="translate(171.606762, 246.104332)"><path style="stroke:none" d=""/></g></g><g style="fill:#3873c2;fill-opacity:1;"><g transform="translate(180.213902, 246.104332)"><path style="stroke:none" d="M 1.6875 -38.125 L 12.03125 -38.125 C 14.8125 -38.125 16.828125 -37.441406 18.078125 -36.078125 C 19.335938 -34.710938 19.96875 -32.492188 19.96875 -29.421875 L 19.96875 -27.734375 C 19.96875 -24.097656 18.664062 -21.925781 16.0625 -21.21875 C 17.65625 -20.800781 18.773438 -19.835938 19.421875 -18.328125 C 20.078125 -16.816406 20.40625 -14.820312 20.40625 -12.34375 C 20.40625 -8.28125 19.800781 -5.207031 18.59375 -3.125 C 17.382812 -1.039062 15.195312 0 12.03125 0 L 1.6875 0 Z M 10.6875 -23.78125 C 11.34375 -23.78125 11.785156 -24.023438 12.015625 -24.515625 C 12.253906 -25.003906 12.375 -25.691406 12.375 -26.578125 L 12.375 -30.390625 C 12.375 -31.640625 11.828125 -32.265625 10.734375 -32.265625 L 9.140625 -32.265625 L 9.140625 -23.78125 Z M 9.890625 -6.703125 C 11.878906 -6.703125 12.875 -7.648438 12.875 -9.546875 L 12.875 -14.28125 C 12.875 -15.4375 12.703125 -16.3125 12.359375 -16.90625 C 12.015625 -17.5 11.414062 -17.796875 10.5625 -17.796875 L 9.140625 -17.796875 L 9.140625 -6.75 Z M 9.890625 -6.703125 "/></g></g><g style="fill:#3873c2;fill-opacity:1;"><g transform="translate(199.691008, 246.104332)"><path style="stroke:none" d="M 10.515625 0.359375 C 7.378906 0.359375 5.050781 -0.523438 3.53125 -2.296875 C 2.007812 -4.078125 1.25 -6.710938 1.25 -10.203125 L 1.25 -38.125 L 8.65625 -38.125 L 8.65625 -10.515625 C 8.65625 -9.304688 8.769531 -8.359375 9 -7.671875 C 9.238281 -6.992188 9.742188 -6.65625 10.515625 -6.65625 C 11.285156 -6.65625 11.785156 -6.988281 12.015625 -7.65625 C 12.253906 -8.320312 12.375 -9.273438 12.375 -10.515625 L 12.375 -38.125 L 19.796875 -38.125 L 19.796875 -10.203125 C 19.796875 -6.710938 19.03125 -4.078125 17.5 -2.296875 C 15.976562 -0.523438 13.648438 0.359375 10.515625 0.359375 Z M 10.515625 0.359375 "/></g></g><g style="fill:#3873c2;fill-opacity:1;"><g transform="translate(218.946274, 246.104332)"><path style="stroke:none" d="M 1.328125 0 L 1.328125 -38.125 L 8.703125 -38.125 L 8.703125 0 Z M 1.328125 0 "/></g></g><g style="fill:#3873c2;fill-opacity:1;"><g transform="translate(227.242839, 246.104332)"><path style="stroke:none" d="M 1.6875 0 L 1.6875 -38.125 L 9.3125 -38.125 L 9.3125 -6.484375 L 17.171875 -6.484375 L 17.171875 0 Z M 1.6875 0 "/></g></g><g style="fill:#3873c2;fill-opacity:1;"><g transform="translate(243.081836, 246.104332)"><path style="stroke:none" d="M 1.6875 -38.125 L 12.203125 -38.125 C 14.921875 -38.125 16.960938 -37.367188 18.328125 -35.859375 C 19.691406 -34.347656 20.382812 -32.113281 20.40625 -29.15625 L 20.5 -11.3125 C 20.53125 -7.5625 19.878906 -4.738281 18.546875 -2.84375 C 17.210938 -0.945312 15.007812 0 11.9375 0 L 1.6875 0 Z M 10.6875 -6.75 C 12.082031 -6.75 12.78125 -7.425781 12.78125 -8.78125 L 12.78125 -28.4375 C 12.78125 -29.300781 12.710938 -29.945312 12.578125 -30.375 C 12.441406 -30.800781 12.195312 -31.085938 11.84375 -31.234375 C 11.488281 -31.390625 10.941406 -31.46875 10.203125 -31.46875 L 9.359375 -31.46875 L 9.359375 -6.75 Z M 10.6875 -6.75 "/></g></g><g style="fill:#3873c2;fill-opacity:1;"><g transform="translate(263.180093, 246.104332)"><path style="stroke:none" d="M 1.328125 0 L 1.328125 -38.125 L 8.703125 -38.125 L 8.703125 0 Z M 1.328125 0 "/></g></g><g style="fill:#3873c2;fill-opacity:1;"><g transform="translate(271.476646, 246.104332)"><path style="stroke:none" d="M 1.6875 0 L 1.6875 -38.125 L 9.546875 -38.125 L 13.046875 -19.875 L 13.046875 -38.125 L 20.40625 -38.125 L 20.40625 0 L 12.953125 0 L 9.140625 -19.078125 L 9.140625 0 Z M 1.6875 0 "/></g></g><g style="fill:#3873c2;fill-opacity:1;"><g transform="translate(291.796721, 246.104332)"><path style="stroke:none" d="M 9.546875 0.359375 C 6.785156 0.359375 4.734375 -0.609375 3.390625 -2.546875 C 2.046875 -4.484375 1.375 -7.421875 1.375 -11.359375 L 1.375 -27.78125 C 1.375 -31.300781 2.15625 -33.960938 3.71875 -35.765625 C 5.289062 -37.566406 7.628906 -38.46875 10.734375 -38.46875 C 13.253906 -38.46875 15.207031 -37.960938 16.59375 -36.953125 C 17.988281 -35.953125 18.953125 -34.488281 19.484375 -32.5625 C 20.015625 -30.644531 20.28125 -28.175781 20.28125 -25.15625 L 12.828125 -25.15625 L 12.828125 -28.578125 C 12.828125 -29.492188 12.695312 -30.203125 12.4375 -30.703125 C 12.1875 -31.210938 11.738281 -31.46875 11.09375 -31.46875 C 9.644531 -31.46875 8.921875 -30.519531 8.921875 -28.625 L 8.921875 -10.15625 C 8.921875 -9.007812 9.066406 -8.140625 9.359375 -7.546875 C 9.660156 -6.953125 10.179688 -6.65625 10.921875 -6.65625 C 11.660156 -6.65625 12.175781 -6.953125 12.46875 -7.546875 C 12.757812 -8.140625 12.90625 -9.007812 12.90625 -10.15625 L 12.90625 -15.625 L 10.875 -15.625 L 10.875 -22.1875 L 20.1875 -22.1875 L 20.1875 0 L 17.125 0 L 15.84375 -3.1875 C 14.476562 -0.820312 12.378906 0.359375 9.546875 0.359375 Z M 9.546875 0.359375 "/></g></g><g style="fill:#3873c2;fill-opacity:1;"><g transform="translate(108.048853, 261.664044)"><path style="stroke:none" d="M 6.625 0.25 C 5.519531 0.25 4.5625 0.0625 3.75 -0.3125 C 2.9375 -0.6875 2.304688 -1.210938 1.859375 -1.890625 C 1.421875 -2.566406 1.195312 -3.351562 1.1875 -4.25 L 2.921875 -4.25 C 2.953125 -3.363281 3.304688 -2.664062 3.984375 -2.15625 C 4.660156 -1.65625 5.539062 -1.40625 6.625 -1.40625 C 7.601562 -1.40625 8.378906 -1.59375 8.953125 -1.96875 C 9.523438 -2.351562 9.8125 -2.890625 9.8125 -3.578125 C 9.8125 -4.222656 9.535156 -4.738281 8.984375 -5.125 C 8.429688 -5.519531 7.523438 -5.863281 6.265625 -6.15625 C 4.566406 -6.5625 3.320312 -7.082031 2.53125 -7.71875 C 1.738281 -8.363281 1.34375 -9.21875 1.34375 -10.28125 C 1.34375 -11.457031 1.785156 -12.390625 2.671875 -13.078125 C 3.566406 -13.765625 4.773438 -14.109375 6.296875 -14.109375 C 7.847656 -14.109375 9.070312 -13.71875 9.96875 -12.9375 C 10.875 -12.15625 11.335938 -11.09375 11.359375 -9.75 L 9.640625 -9.75 C 9.617188 -10.582031 9.304688 -11.238281 8.703125 -11.71875 C 8.109375 -12.195312 7.304688 -12.4375 6.296875 -12.4375 C 5.304688 -12.4375 4.53125 -12.242188 3.96875 -11.859375 C 3.40625 -11.472656 3.125 -10.945312 3.125 -10.28125 C 3.125 -9.71875 3.382812 -9.238281 3.90625 -8.84375 C 4.425781 -8.457031 5.359375 -8.101562 6.703125 -7.78125 C 8.472656 -7.34375 9.734375 -6.796875 10.484375 -6.140625 C 11.234375 -5.484375 11.609375 -4.648438 11.609375 -3.640625 C 11.609375 -2.441406 11.15625 -1.492188 10.25 -0.796875 C 9.351562 -0.0976562 8.144531 0.25 6.625 0.25 Z M 6.625 0.25 "/></g></g><g style="fill:#3873c2;fill-opacity:1;"><g transform="translate(126.006416, 261.664044)"><path style="stroke:none" d="M 8.3125 0.25 C 6.914062 0.25 5.675781 -0.0507812 4.59375 -0.65625 C 3.507812 -1.269531 2.660156 -2.117188 2.046875 -3.203125 C 1.441406 -4.285156 1.140625 -5.523438 1.140625 -6.921875 C 1.140625 -8.335938 1.441406 -9.582031 2.046875 -10.65625 C 2.660156 -11.726562 3.507812 -12.570312 4.59375 -13.1875 C 5.675781 -13.800781 6.914062 -14.109375 8.3125 -14.109375 C 9.71875 -14.109375 10.957031 -13.800781 12.03125 -13.1875 C 13.113281 -12.570312 13.957031 -11.726562 14.5625 -10.65625 C 15.175781 -9.582031 15.484375 -8.335938 15.484375 -6.921875 C 15.484375 -5.523438 15.175781 -4.285156 14.5625 -3.203125 C 13.957031 -2.117188 13.113281 -1.269531 12.03125 -0.65625 C 10.957031 -0.0507812 9.71875 0.25 8.3125 0.25 Z M 2.921875 -6.921875 C 2.921875 -5.859375 3.148438 -4.914062 3.609375 -4.09375 C 4.066406 -3.28125 4.695312 -2.640625 5.5 -2.171875 C 6.3125 -1.710938 7.25 -1.484375 8.3125 -1.484375 C 9.375 -1.484375 10.304688 -1.710938 11.109375 -2.171875 C 11.921875 -2.640625 12.550781 -3.28125 13 -4.09375 C 13.457031 -4.914062 13.6875 -5.859375 13.6875 -6.921875 C 13.6875 -8.003906 13.457031 -8.953125 13 -9.765625 C 12.550781 -10.578125 11.921875 -11.210938 11.109375 -11.671875 C 10.304688 -12.128906 9.375 -12.359375 8.3125 -12.359375 C 7.25 -12.359375 6.3125 -12.128906 5.5 -11.671875 C 4.695312 -11.210938 4.066406 -10.578125 3.609375 -9.765625 C 3.148438 -8.953125 2.921875 -8.003906 2.921875 -6.921875 Z M 2.921875 -6.921875 "/></g></g><g style="fill:#3873c2;fill-opacity:1;"><g transform="translate(147.780976, 261.664044)"><path style="stroke:none" d="M 2.015625 0 L 2.015625 -13.84375 L 3.765625 -13.84375 L 3.765625 -1.65625 L 10.484375 -1.65625 L 10.484375 0 Z M 2.015625 0 "/></g></g><g style="fill:#3873c2;fill-opacity:1;"><g transform="translate(164.037697, 261.664044)"><path style="stroke:none" d="M 7.203125 0.234375 C 5.523438 0.234375 4.210938 -0.285156 3.265625 -1.328125 C 2.328125 -2.367188 1.859375 -3.804688 1.859375 -5.640625 L 1.859375 -13.84375 L 3.578125 -13.84375 L 3.578125 -5.75 C 3.578125 -4.34375 3.882812 -3.273438 4.5 -2.546875 C 5.125 -1.828125 6.023438 -1.46875 7.203125 -1.46875 C 9.617188 -1.46875 10.828125 -2.894531 10.828125 -5.75 L 10.828125 -13.84375 L 12.5625 -13.84375 L 12.5625 -5.640625 C 12.5625 -3.804688 12.085938 -2.367188 11.140625 -1.328125 C 10.191406 -0.285156 8.878906 0.234375 7.203125 0.234375 Z M 7.203125 0.234375 "/></g></g><g style="fill:#3873c2;fill-opacity:1;"><g transform="translate(183.616986, 261.664044)"><path style="stroke:none" d="M 5.359375 0 L 5.359375 -12.1875 L 0.671875 -12.1875 L 0.671875 -13.84375 L 11.765625 -13.84375 L 11.765625 -12.1875 L 7.09375 -12.1875 L 7.09375 0 Z M 5.359375 0 "/></g></g><g style="fill:#3873c2;fill-opacity:1;"><g transform="translate(201.238349, 261.664044)"><path style="stroke:none" d="M 2.015625 0 L 2.015625 -13.84375 L 3.765625 -13.84375 L 3.765625 0 Z M 2.015625 0 "/></g></g><g style="fill:#3873c2;fill-opacity:1;"><g transform="translate(212.175044, 261.664044)"><path style="stroke:none" d="M 8.3125 0.25 C 6.914062 0.25 5.675781 -0.0507812 4.59375 -0.65625 C 3.507812 -1.269531 2.660156 -2.117188 2.046875 -3.203125 C 1.441406 -4.285156 1.140625 -5.523438 1.140625 -6.921875 C 1.140625 -8.335938 1.441406 -9.582031 2.046875 -10.65625 C 2.660156 -11.726562 3.507812 -12.570312 4.59375 -13.1875 C 5.675781 -13.800781 6.914062 -14.109375 8.3125 -14.109375 C 9.71875 -14.109375 10.957031 -13.800781 12.03125 -13.1875 C 13.113281 -12.570312 13.957031 -11.726562 14.5625 -10.65625 C 15.175781 -9.582031 15.484375 -8.335938 15.484375 -6.921875 C 15.484375 -5.523438 15.175781 -4.285156 14.5625 -3.203125 C 13.957031 -2.117188 13.113281 -1.269531 12.03125 -0.65625 C 10.957031 -0.0507812 9.71875 0.25 8.3125 0.25 Z M 2.921875 -6.921875 C 2.921875 -5.859375 3.148438 -4.914062 3.609375 -4.09375 C 4.066406 -3.28125 4.695312 -2.640625 5.5 -2.171875 C 6.3125 -1.710938 7.25 -1.484375 8.3125 -1.484375 C 9.375 -1.484375 10.304688 -1.710938 11.109375 -2.171875 C 11.921875 -2.640625 12.550781 -3.28125 13 -4.09375 C 13.457031 -4.914062 13.6875 -5.859375 13.6875 -6.921875 C 13.6875 -8.003906 13.457031 -8.953125 13 -9.765625 C 12.550781 -10.578125 11.921875 -11.210938 11.109375 -11.671875 C 10.304688 -12.128906 9.375 -12.359375 8.3125 -12.359375 C 7.25 -12.359375 6.3125 -12.128906 5.5 -11.671875 C 4.695312 -11.210938 4.066406 -10.578125 3.609375 -9.765625 C 3.148438 -8.953125 2.921875 -8.003906 2.921875 -6.921875 Z M 2.921875 -6.921875 "/></g></g><g style="fill:#3873c2;fill-opacity:1;"><g transform="translate(233.949604, 261.664044)"><path style="stroke:none" d="M 2.015625 0 L 2.015625 -13.84375 L 3.65625 -13.84375 L 11.3125 -3 L 11.3125 -13.84375 L 13.015625 -13.84375 L 13.015625 0 L 11.390625 0 L 3.734375 -10.84375 L 3.734375 0 Z M 2.015625 0 "/></g></g><g style="fill:#3873c2;fill-opacity:1;"><g transform="translate(254.141995, 261.664044)"><path style="stroke:none" d="M 6.625 0.25 C 5.519531 0.25 4.5625 0.0625 3.75 -0.3125 C 2.9375 -0.6875 2.304688 -1.210938 1.859375 -1.890625 C 1.421875 -2.566406 1.195312 -3.351562 1.1875 -4.25 L 2.921875 -4.25 C 2.953125 -3.363281 3.304688 -2.664062 3.984375 -2.15625 C 4.660156 -1.65625 5.539062 -1.40625 6.625 -1.40625 C 7.601562 -1.40625 8.378906 -1.59375 8.953125 -1.96875 C 9.523438 -2.351562 9.8125 -2.890625 9.8125 -3.578125 C 9.8125 -4.222656 9.535156 -4.738281 8.984375 -5.125 C 8.429688 -5.519531 7.523438 -5.863281 6.265625 -6.15625 C 4.566406 -6.5625 3.320312 -7.082031 2.53125 -7.71875 C 1.738281 -8.363281 1.34375 -9.21875 1.34375 -10.28125 C 1.34375 -11.457031 1.785156 -12.390625 2.671875 -13.078125 C 3.566406 -13.765625 4.773438 -14.109375 6.296875 -14.109375 C 7.847656 -14.109375 9.070312 -13.71875 9.96875 -12.9375 C 10.875 -12.15625 11.335938 -11.09375 11.359375 -9.75 L 9.640625 -9.75 C 9.617188 -10.582031 9.304688 -11.238281 8.703125 -11.71875 C 8.109375 -12.195312 7.304688 -12.4375 6.296875 -12.4375 C 5.304688 -12.4375 4.53125 -12.242188 3.96875 -11.859375 C 3.40625 -11.472656 3.125 -10.945312 3.125 -10.28125 C 3.125 -9.71875 3.382812 -9.238281 3.90625 -8.84375 C 4.425781 -8.457031 5.359375 -8.101562 6.703125 -7.78125 C 8.472656 -7.34375 9.734375 -6.796875 10.484375 -6.140625 C 11.234375 -5.484375 11.609375 -4.648438 11.609375 -3.640625 C 11.609375 -2.441406 11.15625 -1.492188 10.25 -0.796875 C 9.351562 -0.0976562 8.144531 0.25 6.625 0.25 Z M 6.625 0.25 "/></g></g></g></svg>
